<svg xmlns="http://www.w3.org/2000/svg" viewBox="0 0 800 800" width="800" height="800" role="img" aria-label="Stock Bajo SD Comayagua">
  <defs>
    <linearGradient id="bg" x1="0" y1="0" x2="1" y2="1">
      <stop offset="0" stop-color="#07111f"/>
      <stop offset=".45" stop-color="#082b48"/>
      <stop offset="1" stop-color="#020710"/>
    </linearGradient>
    <radialGradient id="glow" cx="35%" cy="20%" r="70%">
      <stop offset="0" stop-color="#a62b35" stop-opacity=".38"/>
      <stop offset=".42" stop-color="#a62b35" stop-opacity=".16"/>
      <stop offset="1" stop-color="#a62b35" stop-opacity="0"/>
    </radialGradient>
    <filter id="shadow" x="-20%" y="-20%" width="140%" height="140%"><feDropShadow dx="0" dy="18" stdDeviation="18" flood-color="#000" flood-opacity=".45"/></filter>
  </defs>
  <rect width="800" height="800" rx="110" fill="url(#bg)"/>
  <rect width="800" height="800" rx="110" fill="url(#glow)"/>
  <path d="M0 160H800M0 320H800M0 480H800M0 640H800M160 0V800M320 0V800M480 0V800M640 0V800" stroke="#ffffff" stroke-opacity=".035" stroke-width="2"/>
  <circle cx="655" cy="145" r="95" fill="#a62b35" opacity=".11"/>
  <circle cx="146" cy="662" r="110" fill="#a62b35" opacity=".08"/>
  <g filter="url(#shadow)"><path fill="none" stroke="#f8fafc" stroke-width="18" stroke-linecap="round" stroke-linejoin="round" opacity=".98" d="M400 230 610 590H190L400 230Z"/><path fill="none" stroke="#a62b35" stroke-width="14" stroke-linecap="round" stroke-linejoin="round" d="M400 350v105M400 525h1"/></g>
  <text x="400" y="702" text-anchor="middle" font-family="Arial Black, Rajdhani, Arial, sans-serif" font-size="48" font-weight="900" letter-spacing="3" fill="#f8fafc">STOCK BAJO</text>
  <text x="400" y="136" text-anchor="middle" font-family="Arial Black, Rajdhani, Arial, sans-serif" font-size="82" font-weight="900" letter-spacing="2" fill="#a62b35" opacity=".98">LOW</text>
  <text x="400" y="754" text-anchor="middle" font-family="Rajdhani, Arial, sans-serif" font-size="28" font-weight="700" letter-spacing="8" fill="#a62b35" opacity=".85">SD COMAYAGUA</text>
  <rect x="25" y="25" width="750" height="750" rx="92" fill="none" stroke="#a62b35" stroke-opacity=".24" stroke-width="4"/>
  <rect x="48" y="48" width="704" height="704" rx="76" fill="none" stroke="#ffffff" stroke-opacity=".08" stroke-width="2"/>
</svg>